<mxGraphModel dx="0" dy="0" grid="1" gridSize="10" guides="1" tooltips="1" connect="1" arrows="1" fold="1" page="0" pageScale="1" background="none" math="0" shadow="0">
  <root>
    <mxCell id="0" />
    <mxCell id="1" parent="0" />
    <mxCell id="node19" parent="1" vertex="1" value="&lt;p style=&quot;margin:0px;margin-top:4px;text-align:center;&quot;&gt;&lt;b&gt;Add&lt;/b&gt;&lt;/p&gt;&lt;hr size=&quot;1&quot;/&gt;&lt;p style=&quot;margin:0 0 0 4px;line-height:1.6;&quot;&gt;+ Add(Console, CollectionManager): &lt;/p&gt;&lt;hr size=&quot;1&quot;/&gt;&lt;p style=&quot;margin:0 0 0 4px;line-height:1.6;&quot;&gt;- collectionManager: CollectionManager&lt;br/&gt;- console: Console&lt;/p&gt;&lt;hr size=&quot;1&quot;/&gt;&lt;p style=&quot;margin:0 0 0 4px;line-height:1.6;&quot;&gt;+ apply(String[]): ExecutionResponse&lt;/p&gt;" style="verticalAlign=top;align=left;overflow=fill;fontSize=14;fontFamily=Helvetica;html=1;rounded=0;shadow=0;comic=0;labelBackgroundColor=none;strokeWidth=1;">
      <mxGeometry x="1571" y="-158" width="284" height="150" as="geometry" />
    </mxCell>
    <mxCell id="node26" parent="1" vertex="1" value="&lt;p style=&quot;margin:0px;margin-top:4px;text-align:center;&quot;&gt;&lt;b&gt;Car&lt;/b&gt;&lt;/p&gt;&lt;hr size=&quot;1&quot;/&gt;&lt;p style=&quot;margin:0 0 0 4px;line-height:1.6;&quot;&gt;+ Car(): &lt;/p&gt;&lt;hr size=&quot;1&quot;/&gt;&lt;p style=&quot;margin:0 0 0 4px;line-height:1.6;&quot;&gt;- name: String&lt;/p&gt;&lt;hr size=&quot;1&quot;/&gt;&lt;p style=&quot;margin:0 0 0 4px;line-height:1.6;&quot;&gt;+ toString(): String&lt;br/&gt;+ validate(): boolean&lt;br/&gt;+ getName(): String&lt;br/&gt;+ hashCode(): int&lt;br/&gt;+ validateName(String): boolean&lt;br/&gt;+ equals(Object): boolean&lt;/p&gt;" style="verticalAlign=top;align=left;overflow=fill;fontSize=14;fontFamily=Helvetica;html=1;rounded=0;shadow=0;comic=0;labelBackgroundColor=none;strokeWidth=1;">
      <mxGeometry x="117" y="195" width="233" height="235" as="geometry" />
    </mxCell>
    <mxCell id="node39" parent="1" vertex="1" value="&lt;p style=&quot;margin:0px;margin-top:4px;text-align:center;&quot;&gt;&lt;b&gt;CarCreator&lt;/b&gt;&lt;/p&gt;&lt;hr size=&quot;1&quot;/&gt;&lt;p style=&quot;margin:0 0 0 4px;line-height:1.6;&quot;&gt;+ CarCreator(): &lt;/p&gt;&lt;hr size=&quot;1&quot;/&gt;&lt;p style=&quot;margin:0 0 0 4px;line-height:1.6;&quot;&gt;+ createCar(Console): Car?&lt;br/&gt;- askName(Console): String&lt;/p&gt;" style="verticalAlign=top;align=left;overflow=fill;fontSize=14;fontFamily=Helvetica;html=1;rounded=0;shadow=0;comic=0;labelBackgroundColor=none;strokeWidth=1;">
      <mxGeometry x="121" y="21" width="207" height="122" as="geometry" />
    </mxCell>
    <mxCell id="node25" parent="1" vertex="1" value="&lt;p style=&quot;margin:0px;margin-top:4px;text-align:center;&quot;&gt;&lt;b&gt;Clear&lt;/b&gt;&lt;/p&gt;&lt;hr size=&quot;1&quot;/&gt;&lt;p style=&quot;margin:0 0 0 4px;line-height:1.6;&quot;&gt;+ Clear(Console, CollectionManager): &lt;/p&gt;&lt;hr size=&quot;1&quot;/&gt;&lt;p style=&quot;margin:0 0 0 4px;line-height:1.6;&quot;&gt;- collectionManager: CollectionManager&lt;/p&gt;&lt;hr size=&quot;1&quot;/&gt;&lt;p style=&quot;margin:0 0 0 4px;line-height:1.6;&quot;&gt;+ apply(String[]): ExecutionResponse&lt;/p&gt;" style="verticalAlign=top;align=left;overflow=fill;fontSize=14;fontFamily=Helvetica;html=1;rounded=0;shadow=0;comic=0;labelBackgroundColor=none;strokeWidth=1;">
      <mxGeometry x="1571" y="19" width="284" height="124" as="geometry" />
    </mxCell>
    <mxCell id="node13" parent="1" vertex="1" value="&lt;p style=&quot;margin:0px;margin-top:4px;text-align:center;&quot;&gt;&lt;b&gt;CollectionManager&lt;/b&gt;&lt;/p&gt;&lt;hr size=&quot;1&quot;/&gt;&lt;p style=&quot;margin:0 0 0 4px;line-height:1.6;&quot;&gt;+ CollectionManager(DumpManager): &lt;/p&gt;&lt;hr size=&quot;1&quot;/&gt;&lt;p style=&quot;margin:0 0 0 4px;line-height:1.6;&quot;&gt;- lastInitTime: LocalDateTime&lt;br/&gt;- lastSaveTime: LocalDateTime&lt;br/&gt;- dumpManager: DumpManager&lt;br/&gt;~ collection: TreeMap&amp;lt;Integer, HumanBeing&amp;gt;&lt;br/&gt;- currentId: int&lt;/p&gt;&lt;hr size=&quot;1&quot;/&gt;&lt;p style=&quot;margin:0 0 0 4px;line-height:1.6;&quot;&gt;+ getCollection(): TreeMap&amp;lt;Integer, HumanBeing&amp;gt;&lt;br/&gt;+ isContain(HumanBeing): boolean&lt;br/&gt;+ toString(): String&lt;br/&gt;+ loadCollection(): boolean&lt;br/&gt;+ getLastInitTime(): LocalDateTime&lt;br/&gt;+ getLastSaveTime(): LocalDateTime&lt;br/&gt;+ getById(int): HumanBeing&lt;br/&gt;+ update(HumanBeing): boolean&lt;br/&gt;+ saveCollection(): void&lt;br/&gt;+ add(HumanBeing): boolean&lt;br/&gt;+ remove(Integer): boolean&lt;/p&gt;" style="verticalAlign=top;align=left;overflow=fill;fontSize=14;fontFamily=Helvetica;html=1;rounded=0;shadow=0;comic=0;labelBackgroundColor=none;strokeWidth=1;">
      <mxGeometry x="1125" y="780" width="351" height="451" as="geometry" />
    </mxCell>
    <mxCell id="node10" parent="1" vertex="1" value="&lt;p style=&quot;margin:0px;margin-top:4px;text-align:center;&quot;&gt;&lt;b&gt;Command&lt;/b&gt;&lt;/p&gt;&lt;hr size=&quot;1&quot;/&gt;&lt;p style=&quot;margin:0 0 0 4px;line-height:1.6;&quot;&gt;+ Command(String, String): &lt;/p&gt;&lt;hr size=&quot;1&quot;/&gt;&lt;p style=&quot;margin:0 0 0 4px;line-height:1.6;&quot;&gt;- name: String&lt;br/&gt;- description: String&lt;/p&gt;&lt;hr size=&quot;1&quot;/&gt;&lt;p style=&quot;margin:0 0 0 4px;line-height:1.6;&quot;&gt;+ getName(): String&lt;br/&gt;+ getDescription(): String&lt;br/&gt;+ hashCode(): int&lt;br/&gt;+ toString(): String&lt;br/&gt;+ equals(Object): boolean&lt;/p&gt;" style="verticalAlign=top;align=left;overflow=fill;fontSize=14;fontFamily=Helvetica;html=1;rounded=0;shadow=0;comic=0;labelBackgroundColor=none;strokeWidth=1;">
      <mxGeometry x="1571" y="1241" width="206" height="235" as="geometry" />
    </mxCell>
    <mxCell id="node38" parent="1" vertex="1" value="&lt;p style=&quot;margin:0px;margin-top:4px;text-align:center;&quot;&gt;&lt;b&gt;CommandManager&lt;/b&gt;&lt;/p&gt;&lt;hr size=&quot;1&quot;/&gt;&lt;p style=&quot;margin:0 0 0 4px;line-height:1.6;&quot;&gt;+ CommandManager(): &lt;/p&gt;&lt;hr size=&quot;1&quot;/&gt;&lt;p style=&quot;margin:0 0 0 4px;line-height:1.6;&quot;&gt;- commands: Map&amp;lt;String, Command&amp;gt;&lt;br/&gt;- commandHistory: List&amp;lt;String&amp;gt;&lt;/p&gt;&lt;hr size=&quot;1&quot;/&gt;&lt;p style=&quot;margin:0 0 0 4px;line-height:1.6;&quot;&gt;+ getCommands(): Map&amp;lt;String, Command&amp;gt;&lt;br/&gt;+ addToHistory(String): void&lt;br/&gt;+ getCommandHistory(): List&amp;lt;String&amp;gt;&lt;br/&gt;+ register(String, Command): void&lt;/p&gt;" style="verticalAlign=top;align=left;overflow=fill;fontSize=14;fontFamily=Helvetica;html=1;rounded=0;shadow=0;comic=0;labelBackgroundColor=none;strokeWidth=1;">
      <mxGeometry x="543" y="1220" width="304" height="211" as="geometry" />
    </mxCell>
    <mxCell id="node8" parent="1" vertex="1" value="&lt;p style=&quot;margin:0px;margin-top:4px;text-align:center;&quot;&gt;&lt;i&gt;&amp;lt;&amp;lt;interface&amp;gt;&amp;gt;&lt;/i&gt;&lt;br/&gt;&lt;b&gt;Console&lt;/b&gt;&lt;/p&gt;&lt;hr size=&quot;1&quot;/&gt;&lt;p style=&quot;margin:0 0 0 4px;line-height:1.6;&quot;&gt;+ printTable(Object, Object): void&lt;br/&gt;+ println(Object): void&lt;br/&gt;+ readln(): String&lt;br/&gt;+ getPrompt(): String&lt;br/&gt;+ selectConsoleScanner(): void&lt;br/&gt;+ selectFileScanner(Scanner): void&lt;br/&gt;+ printError(Object): void&lt;br/&gt;+ prompt(): void&lt;br/&gt;+ getUserValueLong(String): Long&lt;br/&gt;+ print(Object): void&lt;br/&gt;+ getUserValueDouble(String): Double&lt;br/&gt;+ getUserValueFloat(String): Float&lt;br/&gt;+ isCanReadln(): boolean&lt;br/&gt;+ getUserValueString(String): String&lt;/p&gt;" style="verticalAlign=top;align=left;overflow=fill;fontSize=14;fontFamily=Helvetica;html=1;rounded=0;shadow=0;comic=0;labelBackgroundColor=none;strokeWidth=1;">
      <mxGeometry x="1125" y="-241" width="273" height="375" as="geometry" />
    </mxCell>
    <mxCell id="node27" parent="1" vertex="1" value="&lt;p style=&quot;margin:0px;margin-top:4px;text-align:center;&quot;&gt;&lt;b&gt;Coordinates&lt;/b&gt;&lt;/p&gt;&lt;hr size=&quot;1&quot;/&gt;&lt;p style=&quot;margin:0 0 0 4px;line-height:1.6;&quot;&gt;+ Coordinates(): &lt;/p&gt;&lt;hr size=&quot;1&quot;/&gt;&lt;p style=&quot;margin:0 0 0 4px;line-height:1.6;&quot;&gt;- y: Float&lt;br/&gt;- x: long&lt;/p&gt;&lt;hr size=&quot;1&quot;/&gt;&lt;p style=&quot;margin:0 0 0 4px;line-height:1.6;&quot;&gt;+ validate(): boolean&lt;br/&gt;+ getX(): long&lt;br/&gt;+ hashCode(): int&lt;br/&gt;+ getY(): Float&lt;br/&gt;+ equals(Object): boolean&lt;br/&gt;+ validateX(Long): boolean&lt;br/&gt;+ toString(): String&lt;/p&gt;" style="verticalAlign=top;align=left;overflow=fill;fontSize=14;fontFamily=Helvetica;html=1;rounded=0;shadow=0;comic=0;labelBackgroundColor=none;strokeWidth=1;">
      <mxGeometry x="385" y="195" width="199" height="283" as="geometry" />
    </mxCell>
    <mxCell id="node35" parent="1" vertex="1" value="&lt;p style=&quot;margin:0px;margin-top:4px;text-align:center;&quot;&gt;&lt;b&gt;CoordinatesCreator&lt;/b&gt;&lt;/p&gt;&lt;hr size=&quot;1&quot;/&gt;&lt;p style=&quot;margin:0 0 0 4px;line-height:1.6;&quot;&gt;+ CoordinatesCreator(): &lt;/p&gt;&lt;hr size=&quot;1&quot;/&gt;&lt;p style=&quot;margin:0 0 0 4px;line-height:1.6;&quot;&gt;+ createCoordinates(Console): Coordinates&lt;br/&gt;- askX(Console): long&lt;br/&gt;- askY(Console): Float&lt;/p&gt;" style="verticalAlign=top;align=left;overflow=fill;fontSize=14;fontFamily=Helvetica;html=1;rounded=0;shadow=0;comic=0;labelBackgroundColor=none;strokeWidth=1;">
      <mxGeometry x="385" y="-3" width="305" height="148" as="geometry" />
    </mxCell>
    <mxCell id="node2" parent="1" vertex="1" value="&lt;p style=&quot;margin:0px;margin-top:4px;text-align:center;&quot;&gt;&lt;i&gt;&amp;lt;&amp;lt;interface&amp;gt;&amp;gt;&lt;/i&gt;&lt;br/&gt;&lt;b&gt;Describable&lt;/b&gt;&lt;/p&gt;&lt;hr size=&quot;1&quot;/&gt;&lt;p style=&quot;margin:0 0 0 4px;line-height:1.6;&quot;&gt;+ getDescription(): String&lt;br/&gt;+ getName(): String&lt;/p&gt;" style="verticalAlign=top;align=left;overflow=fill;fontSize=14;fontFamily=Helvetica;html=1;rounded=0;shadow=0;comic=0;labelBackgroundColor=none;strokeWidth=1;">
      <mxGeometry x="1664" y="-283" width="191" height="109" as="geometry" />
    </mxCell>
    <mxCell id="node16" parent="1" vertex="1" value="&lt;p style=&quot;margin:0px;margin-top:4px;text-align:center;&quot;&gt;&lt;b&gt;DumpManager&lt;/b&gt;&lt;/p&gt;&lt;hr size=&quot;1&quot;/&gt;&lt;p style=&quot;margin:0 0 0 4px;line-height:1.6;&quot;&gt;+ DumpManager(String, Console): &lt;/p&gt;&lt;hr size=&quot;1&quot;/&gt;&lt;p style=&quot;margin:0 0 0 4px;line-height:1.6;&quot;&gt;- fileName: String&lt;br/&gt;- console: Console&lt;/p&gt;&lt;hr size=&quot;1&quot;/&gt;&lt;p style=&quot;margin:0 0 0 4px;line-height:1.6;&quot;&gt;+ writeCollection(TreeMap&amp;lt;Integer, HumanBeing&amp;gt;): void&lt;br/&gt;+ readCollection(TreeMap&amp;lt;Integer, HumanBeing&amp;gt;): void&lt;/p&gt;" style="verticalAlign=top;align=left;overflow=fill;fontSize=14;fontFamily=Helvetica;html=1;rounded=0;shadow=0;comic=0;labelBackgroundColor=none;strokeWidth=1;">
      <mxGeometry x="117" y="1268" width="388" height="163" as="geometry" />
    </mxCell>
    <mxCell id="node29" parent="1" vertex="1" value="&lt;p style=&quot;margin:0px;margin-top:4px;text-align:center;&quot;&gt;&lt;b&gt;Element&lt;/b&gt;&lt;/p&gt;&lt;hr size=&quot;1&quot;/&gt;&lt;p style=&quot;margin:0 0 0 4px;line-height:1.6;&quot;&gt;+ Element(): &lt;/p&gt;&lt;hr size=&quot;1&quot;/&gt;&lt;p style=&quot;margin:0 0 0 4px;line-height:1.6;&quot;&gt;+ getId(): Integer&lt;/p&gt;" style="verticalAlign=top;align=left;overflow=fill;fontSize=14;fontFamily=Helvetica;html=1;rounded=0;shadow=0;comic=0;labelBackgroundColor=none;strokeWidth=1;">
      <mxGeometry x="490" y="1061" width="139" height="96" as="geometry" />
    </mxCell>
    <mxCell id="node14" parent="1" vertex="1" value="&lt;p style=&quot;margin:0px;margin-top:4px;text-align:center;&quot;&gt;&lt;i&gt;&amp;lt;&amp;lt;interface&amp;gt;&amp;gt;&lt;/i&gt;&lt;br/&gt;&lt;b&gt;Executable&lt;/b&gt;&lt;/p&gt;&lt;hr size=&quot;1&quot;/&gt;&lt;p style=&quot;margin:0 0 0 4px;line-height:1.6;&quot;&gt;+ apply(String[]): ExecutionResponse&lt;/p&gt;" style="verticalAlign=top;align=left;overflow=fill;fontSize=14;fontFamily=Helvetica;html=1;rounded=0;shadow=0;comic=0;labelBackgroundColor=none;strokeWidth=1;">
      <mxGeometry x="2076" y="-259" width="266" height="79" as="geometry" />
    </mxCell>
    <mxCell id="node21" parent="1" vertex="1" value="&lt;p style=&quot;margin:0px;margin-top:4px;text-align:center;&quot;&gt;&lt;b&gt;ExecuteScript&lt;/b&gt;&lt;/p&gt;&lt;hr size=&quot;1&quot;/&gt;&lt;p style=&quot;margin:0 0 0 4px;line-height:1.6;&quot;&gt;+ ExecuteScript(Console): &lt;/p&gt;&lt;hr size=&quot;1&quot;/&gt;&lt;p style=&quot;margin:0 0 0 4px;line-height:1.6;&quot;&gt;+ apply(String[]): ExecutionResponse&lt;/p&gt;" style="verticalAlign=top;align=left;overflow=fill;fontSize=14;fontFamily=Helvetica;html=1;rounded=0;shadow=0;comic=0;labelBackgroundColor=none;strokeWidth=1;">
      <mxGeometry x="1571" y="173" width="266" height="96" as="geometry" />
    </mxCell>
    <mxCell id="node31" parent="1" vertex="1" value="&lt;p style=&quot;margin:0px;margin-top:4px;text-align:center;&quot;&gt;&lt;b&gt;ExecutionResponse&lt;/b&gt;&lt;/p&gt;&lt;hr size=&quot;1&quot;/&gt;&lt;p style=&quot;margin:0 0 0 4px;line-height:1.6;&quot;&gt;+ ExecutionResponse(boolean, String): &lt;br/&gt;+ ExecutionResponse(String): &lt;/p&gt;&lt;hr size=&quot;1&quot;/&gt;&lt;p style=&quot;margin:0 0 0 4px;line-height:1.6;&quot;&gt;- message: String&lt;br/&gt;- exitCode: boolean&lt;/p&gt;&lt;hr size=&quot;1&quot;/&gt;&lt;p style=&quot;margin:0 0 0 4px;line-height:1.6;&quot;&gt;+ toString(): String&lt;br/&gt;+ getExitCode(): boolean&lt;br/&gt;+ getMessage(): String&lt;/p&gt;" style="verticalAlign=top;align=left;overflow=fill;fontSize=14;fontFamily=Helvetica;html=1;rounded=0;shadow=0;comic=0;labelBackgroundColor=none;strokeWidth=1;">
      <mxGeometry x="369" y="716" width="281" height="211" as="geometry" />
    </mxCell>
    <mxCell id="node15" parent="1" vertex="1" value="&lt;p style=&quot;margin:0px;margin-top:4px;text-align:center;&quot;&gt;&lt;b&gt;Exit&lt;/b&gt;&lt;/p&gt;&lt;hr size=&quot;1&quot;/&gt;&lt;p style=&quot;margin:0 0 0 4px;line-height:1.6;&quot;&gt;+ Exit(Console): &lt;/p&gt;&lt;hr size=&quot;1&quot;/&gt;&lt;p style=&quot;margin:0 0 0 4px;line-height:1.6;&quot;&gt;+ apply(String[]): ExecutionResponse&lt;/p&gt;" style="verticalAlign=top;align=left;overflow=fill;fontSize=14;fontFamily=Helvetica;html=1;rounded=0;shadow=0;comic=0;labelBackgroundColor=none;strokeWidth=1;">
      <mxGeometry x="1571" y="300" width="266" height="96" as="geometry" />
    </mxCell>
    <mxCell id="node22" parent="1" vertex="1" value="&lt;p style=&quot;margin:0px;margin-top:4px;text-align:center;&quot;&gt;&lt;b&gt;FilterLessThanCar&lt;/b&gt;&lt;/p&gt;&lt;hr size=&quot;1&quot;/&gt;&lt;p style=&quot;margin:0 0 0 4px;line-height:1.6;&quot;&gt;+ FilterLessThanCar(Console, CollectionManager): &lt;/p&gt;&lt;hr size=&quot;1&quot;/&gt;&lt;p style=&quot;margin:0 0 0 4px;line-height:1.6;&quot;&gt;- collectionManager: CollectionManager&lt;/p&gt;&lt;hr size=&quot;1&quot;/&gt;&lt;p style=&quot;margin:0 0 0 4px;line-height:1.6;&quot;&gt;+ apply(String[]): ExecutionResponse&lt;/p&gt;" style="verticalAlign=top;align=left;overflow=fill;fontSize=14;fontFamily=Helvetica;html=1;rounded=0;shadow=0;comic=0;labelBackgroundColor=none;strokeWidth=1;">
      <mxGeometry x="1571" y="427" width="351" height="124" as="geometry" />
    </mxCell>
    <mxCell id="node12" parent="1" vertex="1" value="&lt;p style=&quot;margin:0px;margin-top:4px;text-align:center;&quot;&gt;&lt;b&gt;Help&lt;/b&gt;&lt;/p&gt;&lt;hr size=&quot;1&quot;/&gt;&lt;p style=&quot;margin:0 0 0 4px;line-height:1.6;&quot;&gt;+ Help(Console, CommandManager): &lt;/p&gt;&lt;hr size=&quot;1&quot;/&gt;&lt;p style=&quot;margin:0 0 0 4px;line-height:1.6;&quot;&gt;- commandManager: CommandManager&lt;/p&gt;&lt;hr size=&quot;1&quot;/&gt;&lt;p style=&quot;margin:0 0 0 4px;line-height:1.6;&quot;&gt;+ apply(String[]): ExecutionResponse&lt;/p&gt;" style="verticalAlign=top;align=left;overflow=fill;fontSize=14;fontFamily=Helvetica;html=1;rounded=0;shadow=0;comic=0;labelBackgroundColor=none;strokeWidth=1;">
      <mxGeometry x="1571" y="580" width="284" height="124" as="geometry" />
    </mxCell>
    <mxCell id="node33" parent="1" vertex="1" value="&lt;p style=&quot;margin:0px;margin-top:4px;text-align:center;&quot;&gt;&lt;b&gt;HumanBeing&lt;/b&gt;&lt;/p&gt;&lt;hr size=&quot;1&quot;/&gt;&lt;p style=&quot;margin:0 0 0 4px;line-height:1.6;&quot;&gt;+ HumanBeing(Integer, LocalDate): &lt;br/&gt;+ HumanBeing(): &lt;/p&gt;&lt;hr size=&quot;1&quot;/&gt;&lt;p style=&quot;margin:0 0 0 4px;line-height:1.6;&quot;&gt;- realHero: Boolean&lt;br/&gt;- car: Car&lt;br/&gt;- id: Integer&lt;br/&gt;- coordinates: Coordinates&lt;br/&gt;- creationDate: LocalDate&lt;br/&gt;- impactSpeed: float&lt;br/&gt;- soundtrackName: String&lt;br/&gt;- hasToothpick: Boolean&lt;br/&gt;- name: String&lt;br/&gt;- minutesOfWaiting: Double&lt;br/&gt;- weaponType: WeaponType&lt;/p&gt;&lt;hr size=&quot;1&quot;/&gt;&lt;p style=&quot;margin:0 0 0 4px;line-height:1.6;&quot;&gt;+ getName(): String&lt;br/&gt;+ validateWeaponType(WeaponType): boolean&lt;br/&gt;+ getHasToothpick(): Boolean&lt;br/&gt;+ getRealHero(): Boolean&lt;br/&gt;+ getId(): Integer&lt;br/&gt;+ getCoordinates(): Coordinates&lt;br/&gt;+ getCreationDate(): LocalDate&lt;br/&gt;+ validateImpactSpeed(Float): boolean&lt;br/&gt;+ getImpactSpeed(): float&lt;br/&gt;+ validateName(String): boolean&lt;br/&gt;+ getSoundtrackName(): String&lt;br/&gt;+ validateSoundtrackName(String): boolean&lt;br/&gt;+ validate(): boolean&lt;br/&gt;+ validateCreationDate(LocalDate): boolean&lt;br/&gt;+ equals(Object): boolean&lt;br/&gt;+ getMinutesOfWaiting(): Double&lt;br/&gt;+ validateCoordinates(Coordinates): boolean&lt;br/&gt;+ toString(): String&lt;br/&gt;+ validateMinutesOfWaiting(Double): boolean&lt;br/&gt;+ hashCode(): int&lt;br/&gt;+ compareTo(Element): int&lt;br/&gt;+ getCar(): Car&lt;br/&gt;+ validateCar(Car): boolean&lt;br/&gt;+ getWeaponType(): WeaponType&lt;br/&gt;+ validateId(Integer): boolean&lt;/p&gt;" style="verticalAlign=top;align=left;overflow=fill;fontSize=14;fontFamily=Helvetica;html=1;rounded=0;shadow=0;comic=0;labelBackgroundColor=none;strokeWidth=1;">
      <mxGeometry x="726" y="195" width="324" height="955" as="geometry" />
    </mxCell>
    <mxCell id="node36" parent="1" vertex="1" value="&lt;p style=&quot;margin:0px;margin-top:4px;text-align:center;&quot;&gt;&lt;b&gt;HumanBeingCreator&lt;/b&gt;&lt;/p&gt;&lt;hr size=&quot;1&quot;/&gt;&lt;p style=&quot;margin:0 0 0 4px;line-height:1.6;&quot;&gt;+ HumanBeingCreator(): &lt;/p&gt;&lt;hr size=&quot;1&quot;/&gt;&lt;p style=&quot;margin:0 0 0 4px;line-height:1.6;&quot;&gt;- trueFalseMap: Map&amp;lt;String, Boolean&amp;gt;&lt;br/&gt;- weaponTypes: Map&amp;lt;String, WeaponType&amp;gt;&lt;/p&gt;&lt;hr size=&quot;1&quot;/&gt;&lt;p style=&quot;margin:0 0 0 4px;line-height:1.6;&quot;&gt;- askMinutesOfWaiting(Console): Double&lt;br/&gt;- askSoundtrackName(Console): String&lt;br/&gt;- askRealHero(Console): Boolean&lt;br/&gt;- askImpactSpeed(Console): float&lt;br/&gt;- askWeaponType(Console): WeaponType&lt;br/&gt;- askHasToothpick(Console): Boolean&lt;br/&gt;+ createHumanBeing(Console, Integer): HumanBeing&lt;br/&gt;- askName(Console): String&lt;/p&gt;" style="verticalAlign=top;align=left;overflow=fill;fontSize=14;fontFamily=Helvetica;html=1;rounded=0;shadow=0;comic=0;labelBackgroundColor=none;strokeWidth=1;">
      <mxGeometry x="726" y="-173" width="364" height="307" as="geometry" />
    </mxCell>
    <mxCell id="node30" parent="1" vertex="1" value="&lt;p style=&quot;margin:0px;margin-top:4px;text-align:center;&quot;&gt;&lt;b&gt;IdGenerator&lt;/b&gt;&lt;/p&gt;&lt;hr size=&quot;1&quot;/&gt;&lt;p style=&quot;margin:0 0 0 4px;line-height:1.6;&quot;&gt;+ IdGenerator(): &lt;/p&gt;&lt;hr size=&quot;1&quot;/&gt;&lt;p style=&quot;margin:0 0 0 4px;line-height:1.6;&quot;&gt;- humanBeingCounter: Integer&lt;/p&gt;&lt;hr size=&quot;1&quot;/&gt;&lt;p style=&quot;margin:0 0 0 4px;line-height:1.6;&quot;&gt;+ restoreHumanBeingCounter(TreeMap&amp;lt;Integer, HumanBeing&amp;gt;): void&lt;br/&gt;- setHumanBeingCounter(Integer): void&lt;br/&gt;+ assignHumanBeingId(): int&lt;/p&gt;" style="verticalAlign=top;align=left;overflow=fill;fontSize=14;fontFamily=Helvetica;html=1;rounded=0;shadow=0;comic=0;labelBackgroundColor=none;strokeWidth=1;">
      <mxGeometry x="117" y="516" width="470" height="163" as="geometry" />
    </mxCell>
    <mxCell id="node18" parent="1" vertex="1" value="&lt;p style=&quot;margin:0px;margin-top:4px;text-align:center;&quot;&gt;&lt;b&gt;Info&lt;/b&gt;&lt;/p&gt;&lt;hr size=&quot;1&quot;/&gt;&lt;p style=&quot;margin:0 0 0 4px;line-height:1.6;&quot;&gt;+ Info(Console, CollectionManager): &lt;/p&gt;&lt;hr size=&quot;1&quot;/&gt;&lt;p style=&quot;margin:0 0 0 4px;line-height:1.6;&quot;&gt;- collectionManager: CollectionManager&lt;/p&gt;&lt;hr size=&quot;1&quot;/&gt;&lt;p style=&quot;margin:0 0 0 4px;line-height:1.6;&quot;&gt;+ apply(String[]): ExecutionResponse&lt;br/&gt;- buildResponse(String, String): ExecutionResponse&lt;/p&gt;" style="verticalAlign=top;align=left;overflow=fill;fontSize=14;fontFamily=Helvetica;html=1;rounded=0;shadow=0;comic=0;labelBackgroundColor=none;strokeWidth=1;">
      <mxGeometry x="1571" y="733" width="360" height="150" as="geometry" />
    </mxCell>
    <mxCell id="node24" parent="1" vertex="1" value="&lt;p style=&quot;margin:0px;margin-top:4px;text-align:center;&quot;&gt;&lt;b&gt;Insert&lt;/b&gt;&lt;/p&gt;&lt;hr size=&quot;1&quot;/&gt;&lt;p style=&quot;margin:0 0 0 4px;line-height:1.6;&quot;&gt;+ Insert(Console, CollectionManager): &lt;/p&gt;&lt;hr size=&quot;1&quot;/&gt;&lt;p style=&quot;margin:0 0 0 4px;line-height:1.6;&quot;&gt;- console: Console&lt;br/&gt;- collectionManager: CollectionManager&lt;/p&gt;&lt;hr size=&quot;1&quot;/&gt;&lt;p style=&quot;margin:0 0 0 4px;line-height:1.6;&quot;&gt;+ apply(String[]): ExecutionResponse&lt;/p&gt;" style="verticalAlign=top;align=left;overflow=fill;fontSize=14;fontFamily=Helvetica;html=1;rounded=0;shadow=0;comic=0;labelBackgroundColor=none;strokeWidth=1;">
      <mxGeometry x="1571" y="911" width="284" height="150" as="geometry" />
    </mxCell>
    <mxCell id="node6" parent="1" vertex="1" value="&lt;p style=&quot;margin:0px;margin-top:4px;text-align:center;&quot;&gt;&lt;b&gt;Load&lt;/b&gt;&lt;/p&gt;&lt;hr size=&quot;1&quot;/&gt;&lt;p style=&quot;margin:0 0 0 4px;line-height:1.6;&quot;&gt;+ Load(Console, CollectionManager): &lt;/p&gt;&lt;hr size=&quot;1&quot;/&gt;&lt;p style=&quot;margin:0 0 0 4px;line-height:1.6;&quot;&gt;- collectionManager: CollectionManager&lt;/p&gt;&lt;hr size=&quot;1&quot;/&gt;&lt;p style=&quot;margin:0 0 0 4px;line-height:1.6;&quot;&gt;+ apply(String[]): ExecutionResponse&lt;/p&gt;" style="verticalAlign=top;align=left;overflow=fill;fontSize=14;fontFamily=Helvetica;html=1;rounded=0;shadow=0;comic=0;labelBackgroundColor=none;strokeWidth=1;">
      <mxGeometry x="1571" y="1088" width="284" height="124" as="geometry" />
    </mxCell>
    <mxCell id="node34" parent="1" vertex="1" value="&lt;p style=&quot;margin:0px;margin-top:4px;text-align:center;&quot;&gt;&lt;b&gt;Main&lt;/b&gt;&lt;/p&gt;&lt;hr size=&quot;1&quot;/&gt;&lt;p style=&quot;margin:0 0 0 4px;line-height:1.6;&quot;&gt;+ Main(): &lt;/p&gt;&lt;hr size=&quot;1&quot;/&gt;&lt;p style=&quot;margin:0 0 0 4px;line-height:1.6;&quot;&gt;+ main(String[]): void&lt;/p&gt;" style="verticalAlign=top;align=left;overflow=fill;fontSize=14;fontFamily=Helvetica;html=1;rounded=0;shadow=0;comic=0;labelBackgroundColor=none;strokeWidth=1;">
      <mxGeometry x="886" y="1342" width="164" height="96" as="geometry" />
    </mxCell>
    <mxCell id="node9" parent="1" vertex="1" value="&lt;p style=&quot;margin:0px;margin-top:4px;text-align:center;&quot;&gt;&lt;b&gt;PrintFieldDescendingWeaponType&lt;/b&gt;&lt;/p&gt;&lt;hr size=&quot;1&quot;/&gt;&lt;p style=&quot;margin:0 0 0 4px;line-height:1.6;&quot;&gt;+ PrintFieldDescendingWeaponType(Console, CollectionManager): &lt;/p&gt;&lt;hr size=&quot;1&quot;/&gt;&lt;p style=&quot;margin:0 0 0 4px;line-height:1.6;&quot;&gt;- collectionManager: CollectionManager&lt;/p&gt;&lt;hr size=&quot;1&quot;/&gt;&lt;p style=&quot;margin:0 0 0 4px;line-height:1.6;&quot;&gt;+ apply(String[]): ExecutionResponse&lt;/p&gt;" style="verticalAlign=top;align=left;overflow=fill;fontSize=14;fontFamily=Helvetica;html=1;rounded=0;shadow=0;comic=0;labelBackgroundColor=none;strokeWidth=1;">
      <mxGeometry x="2035" y="-158" width="453" height="124" as="geometry" />
    </mxCell>
    <mxCell id="node5" parent="1" vertex="1" value="&lt;p style=&quot;margin:0px;margin-top:4px;text-align:center;&quot;&gt;&lt;b&gt;RemoveGreater&lt;/b&gt;&lt;/p&gt;&lt;hr size=&quot;1&quot;/&gt;&lt;p style=&quot;margin:0 0 0 4px;line-height:1.6;&quot;&gt;+ RemoveGreater(Console, CollectionManager): &lt;/p&gt;&lt;hr size=&quot;1&quot;/&gt;&lt;p style=&quot;margin:0 0 0 4px;line-height:1.6;&quot;&gt;- collectionManager: CollectionManager&lt;/p&gt;&lt;hr size=&quot;1&quot;/&gt;&lt;p style=&quot;margin:0 0 0 4px;line-height:1.6;&quot;&gt;+ apply(String[]): ExecutionResponse&lt;/p&gt;" style="verticalAlign=top;align=left;overflow=fill;fontSize=14;fontFamily=Helvetica;html=1;rounded=0;shadow=0;comic=0;labelBackgroundColor=none;strokeWidth=1;">
      <mxGeometry x="2035" y="-5" width="336" height="124" as="geometry" />
    </mxCell>
    <mxCell id="node3" parent="1" vertex="1" value="&lt;p style=&quot;margin:0px;margin-top:4px;text-align:center;&quot;&gt;&lt;b&gt;RemoveKey&lt;/b&gt;&lt;/p&gt;&lt;hr size=&quot;1&quot;/&gt;&lt;p style=&quot;margin:0 0 0 4px;line-height:1.6;&quot;&gt;+ RemoveKey(Console, CollectionManager): &lt;/p&gt;&lt;hr size=&quot;1&quot;/&gt;&lt;p style=&quot;margin:0 0 0 4px;line-height:1.6;&quot;&gt;- collectionManager: CollectionManager&lt;/p&gt;&lt;hr size=&quot;1&quot;/&gt;&lt;p style=&quot;margin:0 0 0 4px;line-height:1.6;&quot;&gt;+ apply(String[]): ExecutionResponse&lt;/p&gt;" style="verticalAlign=top;align=left;overflow=fill;fontSize=14;fontFamily=Helvetica;html=1;rounded=0;shadow=0;comic=0;labelBackgroundColor=none;strokeWidth=1;">
      <mxGeometry x="2035" y="149" width="311" height="124" as="geometry" />
    </mxCell>
    <mxCell id="node20" parent="1" vertex="1" value="&lt;p style=&quot;margin:0px;margin-top:4px;text-align:center;&quot;&gt;&lt;b&gt;RemoveLower&lt;/b&gt;&lt;/p&gt;&lt;hr size=&quot;1&quot;/&gt;&lt;p style=&quot;margin:0 0 0 4px;line-height:1.6;&quot;&gt;+ RemoveLower(Console, CollectionManager): &lt;/p&gt;&lt;hr size=&quot;1&quot;/&gt;&lt;p style=&quot;margin:0 0 0 4px;line-height:1.6;&quot;&gt;- collectionManager: CollectionManager&lt;/p&gt;&lt;hr size=&quot;1&quot;/&gt;&lt;p style=&quot;margin:0 0 0 4px;line-height:1.6;&quot;&gt;+ apply(String[]): ExecutionResponse&lt;/p&gt;" style="verticalAlign=top;align=left;overflow=fill;fontSize=14;fontFamily=Helvetica;html=1;rounded=0;shadow=0;comic=0;labelBackgroundColor=none;strokeWidth=1;">
      <mxGeometry x="2035" y="302" width="327" height="124" as="geometry" />
    </mxCell>
    <mxCell id="node11" parent="1" vertex="1" value="&lt;p style=&quot;margin:0px;margin-top:4px;text-align:center;&quot;&gt;&lt;b&gt;ReplaceIfGreater&lt;/b&gt;&lt;/p&gt;&lt;hr size=&quot;1&quot;/&gt;&lt;p style=&quot;margin:0 0 0 4px;line-height:1.6;&quot;&gt;+ ReplaceIfGreater(Console, CollectionManager): &lt;/p&gt;&lt;hr size=&quot;1&quot;/&gt;&lt;p style=&quot;margin:0 0 0 4px;line-height:1.6;&quot;&gt;- console: Console&lt;br/&gt;- collectionManager: CollectionManager&lt;/p&gt;&lt;hr size=&quot;1&quot;/&gt;&lt;p style=&quot;margin:0 0 0 4px;line-height:1.6;&quot;&gt;+ apply(String[]): ExecutionResponse&lt;br/&gt;- compareHumanBeings(HumanBeing, HumanBeing): boolean&lt;/p&gt;" style="verticalAlign=top;align=left;overflow=fill;fontSize=14;fontFamily=Helvetica;html=1;rounded=0;shadow=0;comic=0;labelBackgroundColor=none;strokeWidth=1;">
      <mxGeometry x="2035" y="455" width="418" height="163" as="geometry" />
    </mxCell>
    <mxCell id="node37" parent="1" vertex="1" value="&lt;p style=&quot;margin:0px;margin-top:4px;text-align:center;&quot;&gt;&lt;b&gt;Runner&lt;/b&gt;&lt;/p&gt;&lt;hr size=&quot;1&quot;/&gt;&lt;p style=&quot;margin:0 0 0 4px;line-height:1.6;&quot;&gt;+ Runner(Console, CommandManager): &lt;/p&gt;&lt;hr size=&quot;1&quot;/&gt;&lt;p style=&quot;margin:0 0 0 4px;line-height:1.6;&quot;&gt;- commandManager: CommandManager&lt;br/&gt;- lengthRecursion: int&lt;br/&gt;- scriptStack: List&amp;lt;String&amp;gt;&lt;br/&gt;- console: Console&lt;/p&gt;&lt;hr size=&quot;1&quot;/&gt;&lt;p style=&quot;margin:0 0 0 4px;line-height:1.6;&quot;&gt;- scriptMode(String): ExecutionResponse&lt;br/&gt;- launchCommand(String[]): ExecutionResponse&lt;br/&gt;+ interactiveMode(): void&lt;br/&gt;- checkRecursion(String, Scanner): boolean&lt;/p&gt;" style="verticalAlign=top;align=left;overflow=fill;fontSize=14;fontFamily=Helvetica;html=1;rounded=0;shadow=0;comic=0;labelBackgroundColor=none;strokeWidth=1;">
      <mxGeometry x="117" y="964" width="336" height="259" as="geometry" />
    </mxCell>
    <mxCell id="node23" parent="1" vertex="1" value="&lt;p style=&quot;margin:0px;margin-top:4px;text-align:center;&quot;&gt;&lt;b&gt;Save&lt;/b&gt;&lt;/p&gt;&lt;hr size=&quot;1&quot;/&gt;&lt;p style=&quot;margin:0 0 0 4px;line-height:1.6;&quot;&gt;+ Save(Console, CollectionManager): &lt;/p&gt;&lt;hr size=&quot;1&quot;/&gt;&lt;p style=&quot;margin:0 0 0 4px;line-height:1.6;&quot;&gt;- collectionManager: CollectionManager&lt;/p&gt;&lt;hr size=&quot;1&quot;/&gt;&lt;p style=&quot;margin:0 0 0 4px;line-height:1.6;&quot;&gt;+ apply(String[]): ExecutionResponse&lt;/p&gt;" style="verticalAlign=top;align=left;overflow=fill;fontSize=14;fontFamily=Helvetica;html=1;rounded=0;shadow=0;comic=0;labelBackgroundColor=none;strokeWidth=1;">
      <mxGeometry x="2035" y="656" width="284" height="124" as="geometry" />
    </mxCell>
    <mxCell id="node1" parent="1" vertex="1" value="&lt;p style=&quot;margin:0px;margin-top:4px;text-align:center;&quot;&gt;&lt;b&gt;Show&lt;/b&gt;&lt;/p&gt;&lt;hr size=&quot;1&quot;/&gt;&lt;p style=&quot;margin:0 0 0 4px;line-height:1.6;&quot;&gt;+ Show(Console, CollectionManager): &lt;/p&gt;&lt;hr size=&quot;1&quot;/&gt;&lt;p style=&quot;margin:0 0 0 4px;line-height:1.6;&quot;&gt;- collectionManager: CollectionManager&lt;/p&gt;&lt;hr size=&quot;1&quot;/&gt;&lt;p style=&quot;margin:0 0 0 4px;line-height:1.6;&quot;&gt;+ apply(String[]): ExecutionResponse&lt;/p&gt;" style="verticalAlign=top;align=left;overflow=fill;fontSize=14;fontFamily=Helvetica;html=1;rounded=0;shadow=0;comic=0;labelBackgroundColor=none;strokeWidth=1;">
      <mxGeometry x="2035" y="809" width="284" height="124" as="geometry" />
    </mxCell>
    <mxCell id="node7" parent="1" vertex="1" value="&lt;p style=&quot;margin:0px;margin-top:4px;text-align:center;&quot;&gt;&lt;b&gt;ShowCommandHistory&lt;/b&gt;&lt;/p&gt;&lt;hr size=&quot;1&quot;/&gt;&lt;p style=&quot;margin:0 0 0 4px;line-height:1.6;&quot;&gt;+ ShowCommandHistory(Console, CommandManager): &lt;/p&gt;&lt;hr size=&quot;1&quot;/&gt;&lt;p style=&quot;margin:0 0 0 4px;line-height:1.6;&quot;&gt;- commandManager: CommandManager&lt;/p&gt;&lt;hr size=&quot;1&quot;/&gt;&lt;p style=&quot;margin:0 0 0 4px;line-height:1.6;&quot;&gt;+ apply(String[]): ExecutionResponse&lt;/p&gt;" style="verticalAlign=top;align=left;overflow=fill;fontSize=14;fontFamily=Helvetica;html=1;rounded=0;shadow=0;comic=0;labelBackgroundColor=none;strokeWidth=1;">
      <mxGeometry x="2035" y="963" width="380" height="124" as="geometry" />
    </mxCell>
    <mxCell id="node17" parent="1" vertex="1" value="&lt;p style=&quot;margin:0px;margin-top:4px;text-align:center;&quot;&gt;&lt;b&gt;StandartConsole&lt;/b&gt;&lt;/p&gt;&lt;hr size=&quot;1&quot;/&gt;&lt;p style=&quot;margin:0 0 0 4px;line-height:1.6;&quot;&gt;+ StandartConsole(): &lt;/p&gt;&lt;hr size=&quot;1&quot;/&gt;&lt;p style=&quot;margin:0 0 0 4px;line-height:1.6;&quot;&gt;- defScanner: Scanner&lt;br/&gt;- prompt: String&lt;br/&gt;- fileScanner: Scanner&lt;/p&gt;&lt;hr size=&quot;1&quot;/&gt;&lt;p style=&quot;margin:0 0 0 4px;line-height:1.6;&quot;&gt;+ println(Object): void&lt;br/&gt;+ isCanReadln(): boolean&lt;br/&gt;+ selectFileScanner(Scanner): void&lt;br/&gt;- getString(String): String&lt;br/&gt;+ printError(Object): void&lt;br/&gt;+ readln(): String&lt;br/&gt;+ getUserValueDouble(String): Double&lt;br/&gt;+ getPrompt(): String&lt;br/&gt;+ selectConsoleScanner(): void&lt;br/&gt;+ print(Object): void&lt;br/&gt;+ close(): void&lt;br/&gt;+ printTable(Object, Object): void&lt;br/&gt;+ prompt(): void&lt;br/&gt;+ getUserValueLong(String): Long&lt;br/&gt;+ getUserValueFloat(String): Float&lt;br/&gt;+ getUserValueString(String): String&lt;/p&gt;" style="verticalAlign=top;align=left;overflow=fill;fontSize=14;fontFamily=Helvetica;html=1;rounded=0;shadow=0;comic=0;labelBackgroundColor=none;strokeWidth=1;">
      <mxGeometry x="1125" y="195" width="273" height="523" as="geometry" />
    </mxCell>
    <mxCell id="node4" parent="1" vertex="1" value="&lt;p style=&quot;margin:0px;margin-top:4px;text-align:center;&quot;&gt;&lt;b&gt;SumOfImpactSpeed&lt;/b&gt;&lt;/p&gt;&lt;hr size=&quot;1&quot;/&gt;&lt;p style=&quot;margin:0 0 0 4px;line-height:1.6;&quot;&gt;+ SumOfImpactSpeed(Console, CollectionManager): &lt;/p&gt;&lt;hr size=&quot;1&quot;/&gt;&lt;p style=&quot;margin:0 0 0 4px;line-height:1.6;&quot;&gt;- collectionManager: CollectionManager&lt;/p&gt;&lt;hr size=&quot;1&quot;/&gt;&lt;p style=&quot;margin:0 0 0 4px;line-height:1.6;&quot;&gt;+ apply(String[]): ExecutionResponse&lt;/p&gt;" style="verticalAlign=top;align=left;overflow=fill;fontSize=14;fontFamily=Helvetica;html=1;rounded=0;shadow=0;comic=0;labelBackgroundColor=none;strokeWidth=1;">
      <mxGeometry x="2035" y="1116" width="361" height="124" as="geometry" />
    </mxCell>
    <mxCell id="node0" parent="1" vertex="1" value="&lt;p style=&quot;margin:0px;margin-top:4px;text-align:center;&quot;&gt;&lt;b&gt;Update&lt;/b&gt;&lt;/p&gt;&lt;hr size=&quot;1&quot;/&gt;&lt;p style=&quot;margin:0 0 0 4px;line-height:1.6;&quot;&gt;+ Update(Console, CollectionManager): &lt;/p&gt;&lt;hr size=&quot;1&quot;/&gt;&lt;p style=&quot;margin:0 0 0 4px;line-height:1.6;&quot;&gt;- collectionManager: CollectionManager&lt;br/&gt;- console: Console&lt;/p&gt;&lt;hr size=&quot;1&quot;/&gt;&lt;p style=&quot;margin:0 0 0 4px;line-height:1.6;&quot;&gt;+ apply(String[]): ExecutionResponse&lt;/p&gt;" style="verticalAlign=top;align=left;overflow=fill;fontSize=14;fontFamily=Helvetica;html=1;rounded=0;shadow=0;comic=0;labelBackgroundColor=none;strokeWidth=1;">
      <mxGeometry x="2035" y="1269" width="284" height="150" as="geometry" />
    </mxCell>
    <mxCell id="node28" parent="1" vertex="1" value="&lt;p style=&quot;margin:0px;margin-top:4px;text-align:center;&quot;&gt;&lt;i&gt;&amp;lt;&amp;lt;interface&amp;gt;&amp;gt;&lt;/i&gt;&lt;br/&gt;&lt;b&gt;Validatable&lt;/b&gt;&lt;/p&gt;&lt;hr size=&quot;1&quot;/&gt;&lt;p style=&quot;margin:0 0 0 4px;line-height:1.6;&quot;&gt;+ validate(): boolean&lt;/p&gt;" style="verticalAlign=top;align=left;overflow=fill;fontSize=14;fontFamily=Helvetica;html=1;rounded=0;shadow=0;comic=0;labelBackgroundColor=none;strokeWidth=1;">
      <mxGeometry x="490" y="964" width="160" height="79" as="geometry" />
    </mxCell>
    <mxCell id="node32" parent="1" vertex="1" value="&lt;p style=&quot;margin:0px;margin-top:4px;text-align:center;&quot;&gt;&lt;i&gt;&amp;lt;&amp;lt;enumeration&amp;gt;&amp;gt;&lt;/i&gt;&lt;br/&gt;&lt;b&gt;WeaponType&lt;/b&gt;&lt;/p&gt;&lt;hr size=&quot;1&quot;/&gt;&lt;p style=&quot;margin:0 0 0 4px;line-height:1.6;&quot;&gt;+ WeaponType(): &lt;/p&gt;&lt;hr size=&quot;1&quot;/&gt;&lt;p style=&quot;margin:0 0 0 4px;line-height:1.6;&quot;&gt;+ HAMMER: &lt;br/&gt;+ KNIFE: &lt;br/&gt;+ AXE: &lt;/p&gt;&lt;hr size=&quot;1&quot;/&gt;&lt;p style=&quot;margin:0 0 0 4px;line-height:1.6;&quot;&gt;+ names(): String&lt;br/&gt;+ valueOf(String): WeaponType&lt;br/&gt;+ values(): WeaponType[]&lt;/p&gt;" style="verticalAlign=top;align=left;overflow=fill;fontSize=14;fontFamily=Helvetica;html=1;rounded=0;shadow=0;comic=0;labelBackgroundColor=none;strokeWidth=1;">
      <mxGeometry x="117" y="716" width="229" height="211" as="geometry" />
    </mxCell>
    <mxCell id="edge34" edge="1" value="" parent="1" source="node19" target="node10" style="html=1;rounded=1;edgeStyle=orthogonalEdgeStyle;dashed=0;startArrow=none;endArrow=block;endSize=12;strokeColor=#000082;exitX=0.000;exitY=0.166;exitDx=0;exitDy=0;entryX=0.000;entryY=0.251;entryDx=0;entryDy=0;">
      <mxGeometry width="50" height="50" relative="1" as="geometry">
        <Array as="points">
          <mxPoint x="1527" y="-135" />
          <mxPoint x="1527" y="-135" />
          <mxPoint x="1495" y="-135" />
          <mxPoint x="1495" y="1300" />
        </Array>
      </mxGeometry>
    </mxCell>
    <mxCell id="edge21" edge="1" value="" parent="1" source="node19" target="node2" style="html=1;rounded=1;edgeStyle=orthogonalEdgeStyle;dashed=1;startArrow=none;endArrow=block;endSize=12;strokeColor=#008200;exitX=1.000;exitY=0.500;exitDx=0;exitDy=0;entryX=1.000;entryY=0.500;entryDx=0;entryDy=0;">
      <mxGeometry width="50" height="50" relative="1" as="geometry">
        <Array as="points">
          <mxPoint x="1955" y="-88" />
          <mxPoint x="1955" y="-240" />
        </Array>
      </mxGeometry>
    </mxCell>
    <mxCell id="edge26" edge="1" value="" parent="1" source="node19" target="node14" style="html=1;rounded=1;edgeStyle=orthogonalEdgeStyle;dashed=1;startArrow=none;endArrow=block;endSize=12;strokeColor=#008200;exitX=1.000;exitY=0.392;exitDx=0;exitDy=0;entryX=0.000;entryY=0.500;entryDx=0;entryDy=0;">
      <mxGeometry width="50" height="50" relative="1" as="geometry">
        <Array as="points">
          <mxPoint x="1973" y="-103" />
          <mxPoint x="1973" y="-228" />
          <mxPoint x="2011" y="-228" />
          <mxPoint x="2011" y="-228" />
        </Array>
      </mxGeometry>
    </mxCell>
    <mxCell id="edge61" edge="1" value="" parent="1" source="node26" target="node28" style="html=1;rounded=1;edgeStyle=orthogonalEdgeStyle;dashed=1;startArrow=none;endArrow=block;endSize=12;strokeColor=#008200;exitX=0.500;exitY=0.000;exitDx=0;exitDy=0;entryX=1.000;entryY=0.500;entryDx=0;entryDy=0;">
      <mxGeometry width="50" height="50" relative="1" as="geometry">
        <Array as="points">
          <mxPoint x="234" y="178" />
          <mxPoint x="689" y="178" />
          <mxPoint x="689" y="996" />
        </Array>
      </mxGeometry>
    </mxCell>
    <mxCell id="edge11" edge="1" value="" parent="1" source="node25" target="node10" style="html=1;rounded=1;edgeStyle=orthogonalEdgeStyle;dashed=0;startArrow=none;endArrow=block;endSize=12;strokeColor=#000082;exitX=0.000;exitY=0.202;exitDx=0;exitDy=0;entryX=0.000;entryY=0.251;entryDx=0;entryDy=0;">
      <mxGeometry width="50" height="50" relative="1" as="geometry">
        <Array as="points">
          <mxPoint x="1495" y="43" />
          <mxPoint x="1495" y="1300" />
        </Array>
      </mxGeometry>
    </mxCell>
    <mxCell id="edge40" edge="1" value="" parent="1" source="node25" target="node2" style="html=1;rounded=1;edgeStyle=orthogonalEdgeStyle;dashed=1;startArrow=none;endArrow=block;endSize=12;strokeColor=#008200;exitX=1.000;exitY=0.500;exitDx=0;exitDy=0;entryX=1.000;entryY=0.500;entryDx=0;entryDy=0;">
      <mxGeometry width="50" height="50" relative="1" as="geometry">
        <Array as="points">
          <mxPoint x="1955" y="77" />
          <mxPoint x="1955" y="-240" />
        </Array>
      </mxGeometry>
    </mxCell>
    <mxCell id="edge46" edge="1" value="" parent="1" source="node25" target="node14" style="html=1;rounded=1;edgeStyle=orthogonalEdgeStyle;dashed=1;startArrow=none;endArrow=block;endSize=12;strokeColor=#008200;exitX=1.000;exitY=0.370;exitDx=0;exitDy=0;entryX=0.000;entryY=0.500;entryDx=0;entryDy=0;">
      <mxGeometry width="50" height="50" relative="1" as="geometry">
        <Array as="points">
          <mxPoint x="1973" y="62" />
          <mxPoint x="1973" y="-228" />
          <mxPoint x="2011" y="-228" />
          <mxPoint x="2011" y="-228" />
        </Array>
      </mxGeometry>
    </mxCell>
    <mxCell id="edge36" edge="1" value="" parent="1" source="node10" target="node2" style="html=1;rounded=1;edgeStyle=orthogonalEdgeStyle;dashed=1;startArrow=none;endArrow=block;endSize=12;strokeColor=#008200;exitX=1.000;exitY=0.436;exitDx=0;exitDy=0;entryX=1.000;entryY=0.500;entryDx=0;entryDy=0;">
      <mxGeometry width="50" height="50" relative="1" as="geometry">
        <Array as="points">
          <mxPoint x="1955" y="1343" />
          <mxPoint x="1955" y="-240" />
        </Array>
      </mxGeometry>
    </mxCell>
    <mxCell id="edge48" edge="1" value="" parent="1" source="node10" target="node14" style="html=1;rounded=1;edgeStyle=orthogonalEdgeStyle;dashed=1;startArrow=none;endArrow=block;endSize=12;strokeColor=#008200;exitX=1.000;exitY=0.500;exitDx=0;exitDy=0;entryX=0.000;entryY=0.500;entryDx=0;entryDy=0;">
      <mxGeometry width="50" height="50" relative="1" as="geometry">
        <Array as="points">
          <mxPoint x="1973" y="1358" />
          <mxPoint x="1973" y="-228" />
          <mxPoint x="2011" y="-228" />
          <mxPoint x="2011" y="-228" />
        </Array>
      </mxGeometry>
    </mxCell>
    <mxCell id="edge60" edge="1" value="" parent="1" source="node27" target="node28" style="html=1;rounded=1;edgeStyle=orthogonalEdgeStyle;dashed=1;startArrow=none;endArrow=block;endSize=12;strokeColor=#008200;exitX=1.000;exitY=0.500;exitDx=0;exitDy=0;entryX=1.000;entryY=0.500;entryDx=0;entryDy=0;">
      <mxGeometry width="50" height="50" relative="1" as="geometry">
        <Array as="points">
          <mxPoint x="689" y="337" />
          <mxPoint x="689" y="996" />
        </Array>
      </mxGeometry>
    </mxCell>
    <mxCell id="edge63" edge="1" value="" parent="1" source="node29" target="node28" style="html=1;rounded=1;edgeStyle=orthogonalEdgeStyle;dashed=1;startArrow=none;endArrow=block;endSize=12;strokeColor=#008200;exitX=1.000;exitY=0.500;exitDx=0;exitDy=0;entryX=1.000;entryY=0.500;entryDx=0;entryDy=0;">
      <mxGeometry width="50" height="50" relative="1" as="geometry">
        <Array as="points">
          <mxPoint x="689" y="1106" />
          <mxPoint x="689" y="996" />
        </Array>
      </mxGeometry>
    </mxCell>
    <mxCell id="edge47" edge="1" value="" parent="1" source="node21" target="node10" style="html=1;rounded=1;edgeStyle=orthogonalEdgeStyle;dashed=0;startArrow=none;endArrow=block;endSize=12;strokeColor=#000082;exitX=0.000;exitY=0.331;exitDx=0;exitDy=0;entryX=0.000;entryY=0.251;entryDx=0;entryDy=0;">
      <mxGeometry width="50" height="50" relative="1" as="geometry">
        <Array as="points">
          <mxPoint x="1495" y="202" />
          <mxPoint x="1495" y="1300" />
        </Array>
      </mxGeometry>
    </mxCell>
    <mxCell id="edge7" edge="1" value="" parent="1" source="node21" target="node2" style="html=1;rounded=1;edgeStyle=orthogonalEdgeStyle;dashed=1;startArrow=none;endArrow=block;endSize=12;strokeColor=#008200;exitX=1.000;exitY=0.500;exitDx=0;exitDy=0;entryX=1.000;entryY=0.500;entryDx=0;entryDy=0;">
      <mxGeometry width="50" height="50" relative="1" as="geometry">
        <Array as="points">
          <mxPoint x="1955" y="217" />
          <mxPoint x="1955" y="-240" />
        </Array>
      </mxGeometry>
    </mxCell>
    <mxCell id="edge57" edge="1" value="" parent="1" source="node21" target="node14" style="html=1;rounded=1;edgeStyle=orthogonalEdgeStyle;dashed=1;startArrow=none;endArrow=block;endSize=12;strokeColor=#008200;exitX=1.000;exitY=0.669;exitDx=0;exitDy=0;entryX=0.000;entryY=0.500;entryDx=0;entryDy=0;">
      <mxGeometry width="50" height="50" relative="1" as="geometry">
        <Array as="points">
          <mxPoint x="1973" y="232" />
          <mxPoint x="1973" y="-228" />
          <mxPoint x="2011" y="-228" />
          <mxPoint x="2011" y="-228" />
        </Array>
      </mxGeometry>
    </mxCell>
    <mxCell id="edge5" edge="1" value="" parent="1" source="node15" target="node10" style="html=1;rounded=1;edgeStyle=orthogonalEdgeStyle;dashed=0;startArrow=none;endArrow=block;endSize=12;strokeColor=#000082;exitX=0.000;exitY=0.253;exitDx=0;exitDy=0;entryX=0.000;entryY=0.251;entryDx=0;entryDy=0;">
      <mxGeometry width="50" height="50" relative="1" as="geometry">
        <Array as="points">
          <mxPoint x="1495" y="322" />
          <mxPoint x="1495" y="1300" />
        </Array>
      </mxGeometry>
    </mxCell>
    <mxCell id="edge14" edge="1" value="" parent="1" source="node15" target="node2" style="html=1;rounded=1;edgeStyle=orthogonalEdgeStyle;dashed=1;startArrow=none;endArrow=block;endSize=12;strokeColor=#008200;exitX=1.000;exitY=0.500;exitDx=0;exitDy=0;entryX=1.000;entryY=0.500;entryDx=0;entryDy=0;">
      <mxGeometry width="50" height="50" relative="1" as="geometry">
        <Array as="points">
          <mxPoint x="1955" y="344" />
          <mxPoint x="1955" y="-240" />
        </Array>
      </mxGeometry>
    </mxCell>
    <mxCell id="edge23" edge="1" value="" parent="1" source="node15" target="node14" style="html=1;rounded=1;edgeStyle=orthogonalEdgeStyle;dashed=1;startArrow=none;endArrow=block;endSize=12;strokeColor=#008200;exitX=1.000;exitY=0.669;exitDx=0;exitDy=0;entryX=0.000;entryY=0.500;entryDx=0;entryDy=0;">
      <mxGeometry width="50" height="50" relative="1" as="geometry">
        <Array as="points">
          <mxPoint x="1973" y="359" />
          <mxPoint x="1973" y="-228" />
          <mxPoint x="2011" y="-228" />
          <mxPoint x="2011" y="-228" />
        </Array>
      </mxGeometry>
    </mxCell>
    <mxCell id="edge9" edge="1" value="" parent="1" source="node22" target="node10" style="html=1;rounded=1;edgeStyle=orthogonalEdgeStyle;dashed=0;startArrow=none;endArrow=block;endSize=12;strokeColor=#000082;exitX=0.000;exitY=0.210;exitDx=0;exitDy=0;entryX=0.000;entryY=0.251;entryDx=0;entryDy=0;">
      <mxGeometry width="50" height="50" relative="1" as="geometry">
        <Array as="points">
          <mxPoint x="1495" y="451" />
          <mxPoint x="1495" y="1300" />
        </Array>
      </mxGeometry>
    </mxCell>
    <mxCell id="edge25" edge="1" value="" parent="1" source="node22" target="node2" style="html=1;rounded=1;edgeStyle=orthogonalEdgeStyle;dashed=1;startArrow=none;endArrow=block;endSize=12;strokeColor=#008200;exitX=1.000;exitY=0.827;exitDx=0;exitDy=0;entryX=1.000;entryY=0.500;entryDx=0;entryDy=0;">
      <mxGeometry width="50" height="50" relative="1" as="geometry">
        <Array as="points">
          <mxPoint x="1955" y="522" />
          <mxPoint x="1955" y="-240" />
        </Array>
      </mxGeometry>
    </mxCell>
    <mxCell id="edge39" edge="1" value="" parent="1" source="node22" target="node14" style="html=1;rounded=1;edgeStyle=orthogonalEdgeStyle;dashed=1;startArrow=none;endArrow=block;endSize=12;strokeColor=#008200;exitX=1.000;exitY=0.500;exitDx=0;exitDy=0;entryX=0.000;entryY=0.500;entryDx=0;entryDy=0;">
      <mxGeometry width="50" height="50" relative="1" as="geometry">
        <Array as="points">
          <mxPoint x="1973" y="484" />
          <mxPoint x="1973" y="-228" />
          <mxPoint x="2011" y="-228" />
          <mxPoint x="2011" y="-228" />
        </Array>
      </mxGeometry>
    </mxCell>
    <mxCell id="edge35" edge="1" value="" parent="1" source="node12" target="node10" style="html=1;rounded=1;edgeStyle=orthogonalEdgeStyle;dashed=0;startArrow=none;endArrow=block;endSize=12;strokeColor=#000082;exitX=0.000;exitY=0.212;exitDx=0;exitDy=0;entryX=0.000;entryY=0.251;entryDx=0;entryDy=0;">
      <mxGeometry width="50" height="50" relative="1" as="geometry">
        <Array as="points">
          <mxPoint x="1495" y="604" />
          <mxPoint x="1495" y="1300" />
        </Array>
      </mxGeometry>
    </mxCell>
    <mxCell id="edge29" edge="1" value="" parent="1" source="node12" target="node2" style="html=1;rounded=1;edgeStyle=orthogonalEdgeStyle;dashed=1;startArrow=none;endArrow=block;endSize=12;strokeColor=#008200;exitX=1.000;exitY=0.370;exitDx=0;exitDy=0;entryX=1.000;entryY=0.500;entryDx=0;entryDy=0;">
      <mxGeometry width="50" height="50" relative="1" as="geometry">
        <Array as="points">
          <mxPoint x="1955" y="623" />
          <mxPoint x="1955" y="-240" />
        </Array>
      </mxGeometry>
    </mxCell>
    <mxCell id="edge32" edge="1" value="" parent="1" source="node12" target="node14" style="html=1;rounded=1;edgeStyle=orthogonalEdgeStyle;dashed=1;startArrow=none;endArrow=block;endSize=12;strokeColor=#008200;exitX=1.000;exitY=0.500;exitDx=0;exitDy=0;entryX=0.000;entryY=0.500;entryDx=0;entryDy=0;">
      <mxGeometry width="50" height="50" relative="1" as="geometry">
        <Array as="points">
          <mxPoint x="1973" y="638" />
          <mxPoint x="1973" y="-228" />
          <mxPoint x="2011" y="-228" />
          <mxPoint x="2011" y="-228" />
        </Array>
      </mxGeometry>
    </mxCell>
    <mxCell id="edge64" edge="1" value="" parent="1" source="node33" target="node29" style="html=1;rounded=1;edgeStyle=orthogonalEdgeStyle;dashed=0;startArrow=none;endArrow=block;endSize=12;strokeColor=#000082;exitX=0.000;exitY=0.969;exitDx=0;exitDy=0;entryX=1.000;entryY=0.669;entryDx=0;entryDy=0;">
      <mxGeometry width="50" height="50" relative="1" as="geometry">
        <Array as="points" />
      </mxGeometry>
    </mxCell>
    <mxCell id="edge62" edge="1" value="" parent="1" source="node33" target="node28" style="html=1;rounded=1;edgeStyle=orthogonalEdgeStyle;dashed=1;startArrow=none;endArrow=block;endSize=12;strokeColor=#008200;exitX=0.000;exitY=0.500;exitDx=0;exitDy=0;entryX=1.000;entryY=0.500;entryDx=0;entryDy=0;">
      <mxGeometry width="50" height="50" relative="1" as="geometry">
        <Array as="points">
          <mxPoint x="689" y="673" />
          <mxPoint x="689" y="996" />
        </Array>
      </mxGeometry>
    </mxCell>
    <mxCell id="edge43" edge="1" value="" parent="1" source="node18" target="node10" style="html=1;rounded=1;edgeStyle=orthogonalEdgeStyle;dashed=0;startArrow=none;endArrow=block;endSize=12;strokeColor=#000082;exitX=0.000;exitY=0.178;exitDx=0;exitDy=0;entryX=0.000;entryY=0.251;entryDx=0;entryDy=0;">
      <mxGeometry width="50" height="50" relative="1" as="geometry">
        <Array as="points">
          <mxPoint x="1495" y="758" />
          <mxPoint x="1495" y="1300" />
        </Array>
      </mxGeometry>
    </mxCell>
    <mxCell id="edge28" edge="1" value="" parent="1" source="node18" target="node2" style="html=1;rounded=1;edgeStyle=orthogonalEdgeStyle;dashed=1;startArrow=none;endArrow=block;endSize=12;strokeColor=#008200;exitX=1.000;exitY=0.392;exitDx=0;exitDy=0;entryX=1.000;entryY=0.500;entryDx=0;entryDy=0;">
      <mxGeometry width="50" height="50" relative="1" as="geometry">
        <Array as="points">
          <mxPoint x="1955" y="788" />
          <mxPoint x="1955" y="-240" />
        </Array>
      </mxGeometry>
    </mxCell>
    <mxCell id="edge4" edge="1" value="" parent="1" source="node18" target="node14" style="html=1;rounded=1;edgeStyle=orthogonalEdgeStyle;dashed=1;startArrow=none;endArrow=block;endSize=12;strokeColor=#008200;exitX=1.000;exitY=0.500;exitDx=0;exitDy=0;entryX=0.000;entryY=0.500;entryDx=0;entryDy=0;">
      <mxGeometry width="50" height="50" relative="1" as="geometry">
        <Array as="points">
          <mxPoint x="1973" y="803" />
          <mxPoint x="1973" y="-228" />
          <mxPoint x="2011" y="-228" />
          <mxPoint x="2011" y="-228" />
        </Array>
      </mxGeometry>
    </mxCell>
    <mxCell id="edge44" edge="1" value="" parent="1" source="node24" target="node10" style="html=1;rounded=1;edgeStyle=orthogonalEdgeStyle;dashed=0;startArrow=none;endArrow=block;endSize=12;strokeColor=#000082;exitX=0.000;exitY=0.392;exitDx=0;exitDy=0;entryX=0.000;entryY=0.251;entryDx=0;entryDy=0;">
      <mxGeometry width="50" height="50" relative="1" as="geometry">
        <Array as="points">
          <mxPoint x="1495" y="965" />
          <mxPoint x="1495" y="1300" />
        </Array>
      </mxGeometry>
    </mxCell>
    <mxCell id="edge51" edge="1" value="" parent="1" source="node24" target="node2" style="html=1;rounded=1;edgeStyle=orthogonalEdgeStyle;dashed=1;startArrow=none;endArrow=block;endSize=12;strokeColor=#008200;exitX=1.000;exitY=0.392;exitDx=0;exitDy=0;entryX=1.000;entryY=0.500;entryDx=0;entryDy=0;">
      <mxGeometry width="50" height="50" relative="1" as="geometry">
        <Array as="points">
          <mxPoint x="1955" y="965" />
          <mxPoint x="1955" y="-240" />
        </Array>
      </mxGeometry>
    </mxCell>
    <mxCell id="edge6" edge="1" value="" parent="1" source="node24" target="node14" style="html=1;rounded=1;edgeStyle=orthogonalEdgeStyle;dashed=1;startArrow=none;endArrow=block;endSize=12;strokeColor=#008200;exitX=1.000;exitY=0.500;exitDx=0;exitDy=0;entryX=0.000;entryY=0.500;entryDx=0;entryDy=0;">
      <mxGeometry width="50" height="50" relative="1" as="geometry">
        <Array as="points">
          <mxPoint x="1973" y="980" />
          <mxPoint x="1973" y="-228" />
          <mxPoint x="2011" y="-228" />
          <mxPoint x="2011" y="-228" />
        </Array>
      </mxGeometry>
    </mxCell>
    <mxCell id="edge53" edge="1" value="" parent="1" source="node6" target="node10" style="html=1;rounded=1;edgeStyle=orthogonalEdgeStyle;dashed=0;startArrow=none;endArrow=block;endSize=12;strokeColor=#000082;exitX=0.000;exitY=0.630;exitDx=0;exitDy=0;entryX=0.000;entryY=0.251;entryDx=0;entryDy=0;">
      <mxGeometry width="50" height="50" relative="1" as="geometry">
        <Array as="points">
          <mxPoint x="1495" y="1160" />
          <mxPoint x="1495" y="1300" />
        </Array>
      </mxGeometry>
    </mxCell>
    <mxCell id="edge58" edge="1" value="" parent="1" source="node6" target="node2" style="html=1;rounded=1;edgeStyle=orthogonalEdgeStyle;dashed=1;startArrow=none;endArrow=block;endSize=12;strokeColor=#008200;exitX=1.000;exitY=0.630;exitDx=0;exitDy=0;entryX=1.000;entryY=0.500;entryDx=0;entryDy=0;">
      <mxGeometry width="50" height="50" relative="1" as="geometry">
        <Array as="points">
          <mxPoint x="1955" y="1160" />
          <mxPoint x="1955" y="-240" />
        </Array>
      </mxGeometry>
    </mxCell>
    <mxCell id="edge49" edge="1" value="" parent="1" source="node6" target="node14" style="html=1;rounded=1;edgeStyle=orthogonalEdgeStyle;dashed=1;startArrow=none;endArrow=block;endSize=12;strokeColor=#008200;exitX=1.000;exitY=0.500;exitDx=0;exitDy=0;entryX=0.000;entryY=0.500;entryDx=0;entryDy=0;">
      <mxGeometry width="50" height="50" relative="1" as="geometry">
        <Array as="points">
          <mxPoint x="1973" y="1145" />
          <mxPoint x="1973" y="-228" />
          <mxPoint x="2011" y="-228" />
          <mxPoint x="2011" y="-228" />
        </Array>
      </mxGeometry>
    </mxCell>
    <mxCell id="edge27" edge="1" value="" parent="1" source="node9" target="node10" style="html=1;rounded=1;edgeStyle=orthogonalEdgeStyle;dashed=0;startArrow=none;endArrow=block;endSize=12;strokeColor=#000082;exitX=0.977;exitY=1.000;exitDx=0;exitDy=0;entryX=1.000;entryY=0.564;entryDx=0;entryDy=0;">
      <mxGeometry width="50" height="50" relative="1" as="geometry">
        <Array as="points">
          <mxPoint x="2478" y="1440" />
          <mxPoint x="1954" y="1440" />
          <mxPoint x="1954" y="1373" />
        </Array>
      </mxGeometry>
    </mxCell>
    <mxCell id="edge24" edge="1" value="" parent="1" source="node9" target="node2" style="html=1;rounded=1;edgeStyle=orthogonalEdgeStyle;dashed=1;startArrow=none;endArrow=block;endSize=12;strokeColor=#008200;exitX=0.000;exitY=0.370;exitDx=0;exitDy=0;entryX=1.000;entryY=0.500;entryDx=0;entryDy=0;">
      <mxGeometry width="50" height="50" relative="1" as="geometry">
        <Array as="points">
          <mxPoint x="1992" y="-115" />
          <mxPoint x="1992" y="-240" />
          <mxPoint x="1955" y="-240" />
          <mxPoint x="1955" y="-240" />
        </Array>
      </mxGeometry>
    </mxCell>
    <mxCell id="edge31" edge="1" value="" parent="1" source="node9" target="node14" style="html=1;rounded=1;edgeStyle=orthogonalEdgeStyle;dashed=1;startArrow=none;endArrow=block;endSize=12;strokeColor=#008200;exitX=0.000;exitY=0.500;exitDx=0;exitDy=0;entryX=0.000;entryY=0.500;entryDx=0;entryDy=0;">
      <mxGeometry width="50" height="50" relative="1" as="geometry">
        <Array as="points">
          <mxPoint x="2011" y="-100" />
          <mxPoint x="2011" y="-228" />
        </Array>
      </mxGeometry>
    </mxCell>
    <mxCell id="edge42" edge="1" value="" parent="1" source="node5" target="node10" style="html=1;rounded=1;edgeStyle=orthogonalEdgeStyle;dashed=0;startArrow=none;endArrow=block;endSize=12;strokeColor=#000082;exitX=1.000;exitY=0.370;exitDx=0;exitDy=0;entryX=1.000;entryY=0.564;entryDx=0;entryDy=0;">
      <mxGeometry width="50" height="50" relative="1" as="geometry">
        <Array as="points">
          <mxPoint x="2478" y="38" />
          <mxPoint x="2478" y="1440" />
          <mxPoint x="1954" y="1440" />
          <mxPoint x="1954" y="1373" />
        </Array>
      </mxGeometry>
    </mxCell>
    <mxCell id="edge8" edge="1" value="" parent="1" source="node5" target="node2" style="html=1;rounded=1;edgeStyle=orthogonalEdgeStyle;dashed=1;startArrow=none;endArrow=block;endSize=12;strokeColor=#008200;exitX=0.000;exitY=0.370;exitDx=0;exitDy=0;entryX=1.000;entryY=0.500;entryDx=0;entryDy=0;">
      <mxGeometry width="50" height="50" relative="1" as="geometry">
        <Array as="points">
          <mxPoint x="1992" y="38" />
          <mxPoint x="1992" y="-240" />
          <mxPoint x="1955" y="-240" />
          <mxPoint x="1955" y="-240" />
        </Array>
      </mxGeometry>
    </mxCell>
    <mxCell id="edge16" edge="1" value="" parent="1" source="node5" target="node14" style="html=1;rounded=1;edgeStyle=orthogonalEdgeStyle;dashed=1;startArrow=none;endArrow=block;endSize=12;strokeColor=#008200;exitX=0.000;exitY=0.500;exitDx=0;exitDy=0;entryX=0.000;entryY=0.500;entryDx=0;entryDy=0;">
      <mxGeometry width="50" height="50" relative="1" as="geometry">
        <Array as="points">
          <mxPoint x="2011" y="53" />
          <mxPoint x="2011" y="-228" />
        </Array>
      </mxGeometry>
    </mxCell>
    <mxCell id="edge17" edge="1" value="" parent="1" source="node3" target="node10" style="html=1;rounded=1;edgeStyle=orthogonalEdgeStyle;dashed=0;startArrow=none;endArrow=block;endSize=12;strokeColor=#000082;exitX=1.000;exitY=0.387;exitDx=0;exitDy=0;entryX=1.000;entryY=0.564;entryDx=0;entryDy=0;">
      <mxGeometry width="50" height="50" relative="1" as="geometry">
        <Array as="points">
          <mxPoint x="2478" y="193" />
          <mxPoint x="2478" y="1440" />
          <mxPoint x="1954" y="1440" />
          <mxPoint x="1954" y="1373" />
        </Array>
      </mxGeometry>
    </mxCell>
    <mxCell id="edge33" edge="1" value="" parent="1" source="node3" target="node2" style="html=1;rounded=1;edgeStyle=orthogonalEdgeStyle;dashed=1;startArrow=none;endArrow=block;endSize=12;strokeColor=#008200;exitX=0.000;exitY=0.630;exitDx=0;exitDy=0;entryX=1.000;entryY=0.500;entryDx=0;entryDy=0;">
      <mxGeometry width="50" height="50" relative="1" as="geometry">
        <Array as="points">
          <mxPoint x="1992" y="221" />
          <mxPoint x="1992" y="-240" />
          <mxPoint x="1955" y="-240" />
          <mxPoint x="1955" y="-240" />
        </Array>
      </mxGeometry>
    </mxCell>
    <mxCell id="edge19" edge="1" value="" parent="1" source="node3" target="node14" style="html=1;rounded=1;edgeStyle=orthogonalEdgeStyle;dashed=1;startArrow=none;endArrow=block;endSize=12;strokeColor=#008200;exitX=0.000;exitY=0.500;exitDx=0;exitDy=0;entryX=0.000;entryY=0.500;entryDx=0;entryDy=0;">
      <mxGeometry width="50" height="50" relative="1" as="geometry">
        <Array as="points">
          <mxPoint x="2011" y="206" />
          <mxPoint x="2011" y="-228" />
        </Array>
      </mxGeometry>
    </mxCell>
    <mxCell id="edge22" edge="1" value="" parent="1" source="node20" target="node10" style="html=1;rounded=1;edgeStyle=orthogonalEdgeStyle;dashed=0;startArrow=none;endArrow=block;endSize=12;strokeColor=#000082;exitX=1.000;exitY=0.388;exitDx=0;exitDy=0;entryX=1.000;entryY=0.564;entryDx=0;entryDy=0;">
      <mxGeometry width="50" height="50" relative="1" as="geometry">
        <Array as="points">
          <mxPoint x="2478" y="346" />
          <mxPoint x="2478" y="1440" />
          <mxPoint x="1954" y="1440" />
          <mxPoint x="1954" y="1373" />
        </Array>
      </mxGeometry>
    </mxCell>
    <mxCell id="edge0" edge="1" value="" parent="1" source="node20" target="node2" style="html=1;rounded=1;edgeStyle=orthogonalEdgeStyle;dashed=1;startArrow=none;endArrow=block;endSize=12;strokeColor=#008200;exitX=0.000;exitY=0.630;exitDx=0;exitDy=0;entryX=1.000;entryY=0.500;entryDx=0;entryDy=0;">
      <mxGeometry width="50" height="50" relative="1" as="geometry">
        <Array as="points">
          <mxPoint x="1992" y="374" />
          <mxPoint x="1992" y="-240" />
          <mxPoint x="1955" y="-240" />
          <mxPoint x="1955" y="-240" />
        </Array>
      </mxGeometry>
    </mxCell>
    <mxCell id="edge10" edge="1" value="" parent="1" source="node20" target="node14" style="html=1;rounded=1;edgeStyle=orthogonalEdgeStyle;dashed=1;startArrow=none;endArrow=block;endSize=12;strokeColor=#008200;exitX=0.000;exitY=0.500;exitDx=0;exitDy=0;entryX=0.000;entryY=0.500;entryDx=0;entryDy=0;">
      <mxGeometry width="50" height="50" relative="1" as="geometry">
        <Array as="points">
          <mxPoint x="2011" y="359" />
          <mxPoint x="2011" y="-228" />
        </Array>
      </mxGeometry>
    </mxCell>
    <mxCell id="edge55" edge="1" value="" parent="1" source="node11" target="node10" style="html=1;rounded=1;edgeStyle=orthogonalEdgeStyle;dashed=0;startArrow=none;endArrow=block;endSize=12;strokeColor=#000082;exitX=1.000;exitY=0.311;exitDx=0;exitDy=0;entryX=1.000;entryY=0.564;entryDx=0;entryDy=0;">
      <mxGeometry width="50" height="50" relative="1" as="geometry">
        <Array as="points">
          <mxPoint x="2478" y="506" />
          <mxPoint x="2478" y="1440" />
          <mxPoint x="1954" y="1440" />
          <mxPoint x="1954" y="1373" />
        </Array>
      </mxGeometry>
    </mxCell>
    <mxCell id="edge59" edge="1" value="" parent="1" source="node11" target="node2" style="html=1;rounded=1;edgeStyle=orthogonalEdgeStyle;dashed=1;startArrow=none;endArrow=block;endSize=12;strokeColor=#008200;exitX=0.000;exitY=0.847;exitDx=0;exitDy=0;entryX=1.000;entryY=0.500;entryDx=0;entryDy=0;">
      <mxGeometry width="50" height="50" relative="1" as="geometry">
        <Array as="points">
          <mxPoint x="1992" y="593" />
          <mxPoint x="1992" y="-240" />
          <mxPoint x="1955" y="-240" />
          <mxPoint x="1955" y="-240" />
        </Array>
      </mxGeometry>
    </mxCell>
    <mxCell id="edge52" edge="1" value="" parent="1" source="node11" target="node14" style="html=1;rounded=1;edgeStyle=orthogonalEdgeStyle;dashed=1;startArrow=none;endArrow=block;endSize=12;strokeColor=#008200;exitX=0.000;exitY=0.500;exitDx=0;exitDy=0;entryX=0.000;entryY=0.500;entryDx=0;entryDy=0;">
      <mxGeometry width="50" height="50" relative="1" as="geometry">
        <Array as="points">
          <mxPoint x="2011" y="536" />
          <mxPoint x="2011" y="-228" />
        </Array>
      </mxGeometry>
    </mxCell>
    <mxCell id="edge50" edge="1" value="" parent="1" source="node23" target="node10" style="html=1;rounded=1;edgeStyle=orthogonalEdgeStyle;dashed=0;startArrow=none;endArrow=block;endSize=12;strokeColor=#000082;exitX=1.000;exitY=0.393;exitDx=0;exitDy=0;entryX=1.000;entryY=0.564;entryDx=0;entryDy=0;">
      <mxGeometry width="50" height="50" relative="1" as="geometry">
        <Array as="points">
          <mxPoint x="2478" y="701" />
          <mxPoint x="2478" y="1440" />
          <mxPoint x="1954" y="1440" />
          <mxPoint x="1954" y="1373" />
        </Array>
      </mxGeometry>
    </mxCell>
    <mxCell id="edge3" edge="1" value="" parent="1" source="node23" target="node2" style="html=1;rounded=1;edgeStyle=orthogonalEdgeStyle;dashed=1;startArrow=none;endArrow=block;endSize=12;strokeColor=#008200;exitX=0.000;exitY=0.370;exitDx=0;exitDy=0;entryX=1.000;entryY=0.500;entryDx=0;entryDy=0;">
      <mxGeometry width="50" height="50" relative="1" as="geometry">
        <Array as="points">
          <mxPoint x="1992" y="699" />
          <mxPoint x="1992" y="-240" />
          <mxPoint x="1955" y="-240" />
          <mxPoint x="1955" y="-240" />
        </Array>
      </mxGeometry>
    </mxCell>
    <mxCell id="edge54" edge="1" value="" parent="1" source="node23" target="node14" style="html=1;rounded=1;edgeStyle=orthogonalEdgeStyle;dashed=1;startArrow=none;endArrow=block;endSize=12;strokeColor=#008200;exitX=0.000;exitY=0.500;exitDx=0;exitDy=0;entryX=0.000;entryY=0.500;entryDx=0;entryDy=0;">
      <mxGeometry width="50" height="50" relative="1" as="geometry">
        <Array as="points">
          <mxPoint x="2011" y="714" />
          <mxPoint x="2011" y="-228" />
        </Array>
      </mxGeometry>
    </mxCell>
    <mxCell id="edge20" edge="1" value="" parent="1" source="node1" target="node10" style="html=1;rounded=1;edgeStyle=orthogonalEdgeStyle;dashed=0;startArrow=none;endArrow=block;endSize=12;strokeColor=#000082;exitX=1.000;exitY=0.395;exitDx=0;exitDy=0;entryX=1.000;entryY=0.564;entryDx=0;entryDy=0;">
      <mxGeometry width="50" height="50" relative="1" as="geometry">
        <Array as="points">
          <mxPoint x="2478" y="855" />
          <mxPoint x="2478" y="1440" />
          <mxPoint x="1954" y="1440" />
          <mxPoint x="1954" y="1373" />
        </Array>
      </mxGeometry>
    </mxCell>
    <mxCell id="edge15" edge="1" value="" parent="1" source="node1" target="node2" style="html=1;rounded=1;edgeStyle=orthogonalEdgeStyle;dashed=1;startArrow=none;endArrow=block;endSize=12;strokeColor=#008200;exitX=0.000;exitY=0.370;exitDx=0;exitDy=0;entryX=1.000;entryY=0.500;entryDx=0;entryDy=0;">
      <mxGeometry width="50" height="50" relative="1" as="geometry">
        <Array as="points">
          <mxPoint x="1992" y="852" />
          <mxPoint x="1992" y="-240" />
          <mxPoint x="1955" y="-240" />
          <mxPoint x="1955" y="-240" />
        </Array>
      </mxGeometry>
    </mxCell>
    <mxCell id="edge12" edge="1" value="" parent="1" source="node1" target="node14" style="html=1;rounded=1;edgeStyle=orthogonalEdgeStyle;dashed=1;startArrow=none;endArrow=block;endSize=12;strokeColor=#008200;exitX=0.000;exitY=0.500;exitDx=0;exitDy=0;entryX=0.000;entryY=0.500;entryDx=0;entryDy=0;">
      <mxGeometry width="50" height="50" relative="1" as="geometry">
        <Array as="points">
          <mxPoint x="2011" y="867" />
          <mxPoint x="2011" y="-228" />
        </Array>
      </mxGeometry>
    </mxCell>
    <mxCell id="edge13" edge="1" value="" parent="1" source="node7" target="node10" style="html=1;rounded=1;edgeStyle=orthogonalEdgeStyle;dashed=0;startArrow=none;endArrow=block;endSize=12;strokeColor=#000082;exitX=1.000;exitY=0.500;exitDx=0;exitDy=0;entryX=1.000;entryY=0.564;entryDx=0;entryDy=0;">
      <mxGeometry width="50" height="50" relative="1" as="geometry">
        <Array as="points">
          <mxPoint x="2478" y="1020" />
          <mxPoint x="2478" y="1440" />
          <mxPoint x="1954" y="1440" />
          <mxPoint x="1954" y="1373" />
        </Array>
      </mxGeometry>
    </mxCell>
    <mxCell id="edge56" edge="1" value="" parent="1" source="node7" target="node2" style="html=1;rounded=1;edgeStyle=orthogonalEdgeStyle;dashed=1;startArrow=none;endArrow=block;endSize=12;strokeColor=#008200;exitX=0.000;exitY=0.370;exitDx=0;exitDy=0;entryX=1.000;entryY=0.500;entryDx=0;entryDy=0;">
      <mxGeometry width="50" height="50" relative="1" as="geometry">
        <Array as="points">
          <mxPoint x="1992" y="1005" />
          <mxPoint x="1992" y="-240" />
          <mxPoint x="1955" y="-240" />
          <mxPoint x="1955" y="-240" />
        </Array>
      </mxGeometry>
    </mxCell>
    <mxCell id="edge37" edge="1" value="" parent="1" source="node7" target="node14" style="html=1;rounded=1;edgeStyle=orthogonalEdgeStyle;dashed=1;startArrow=none;endArrow=block;endSize=12;strokeColor=#008200;exitX=0.000;exitY=0.500;exitDx=0;exitDy=0;entryX=0.000;entryY=0.500;entryDx=0;entryDy=0;">
      <mxGeometry width="50" height="50" relative="1" as="geometry">
        <Array as="points">
          <mxPoint x="2011" y="1020" />
          <mxPoint x="2011" y="-228" />
        </Array>
      </mxGeometry>
    </mxCell>
    <mxCell id="edge2" edge="1" value="" parent="1" source="node17" target="node8" style="html=1;rounded=1;edgeStyle=orthogonalEdgeStyle;dashed=1;startArrow=none;endArrow=block;endSize=12;strokeColor=#008200;exitX=0.500;exitY=0.000;exitDx=0;exitDy=0;entryX=0.500;entryY=1.000;entryDx=0;entryDy=0;">
      <mxGeometry width="50" height="50" relative="1" as="geometry">
        <Array as="points" />
      </mxGeometry>
    </mxCell>
    <mxCell id="edge30" edge="1" value="" parent="1" source="node4" target="node10" style="html=1;rounded=1;edgeStyle=orthogonalEdgeStyle;dashed=0;startArrow=none;endArrow=block;endSize=12;strokeColor=#000082;exitX=1.000;exitY=0.500;exitDx=0;exitDy=0;entryX=1.000;entryY=0.564;entryDx=0;entryDy=0;">
      <mxGeometry width="50" height="50" relative="1" as="geometry">
        <Array as="points">
          <mxPoint x="2478" y="1173" />
          <mxPoint x="2478" y="1440" />
          <mxPoint x="1954" y="1440" />
          <mxPoint x="1954" y="1373" />
        </Array>
      </mxGeometry>
    </mxCell>
    <mxCell id="edge45" edge="1" value="" parent="1" source="node4" target="node2" style="html=1;rounded=1;edgeStyle=orthogonalEdgeStyle;dashed=1;startArrow=none;endArrow=block;endSize=12;strokeColor=#008200;exitX=0.000;exitY=0.630;exitDx=0;exitDy=0;entryX=1.000;entryY=0.500;entryDx=0;entryDy=0;">
      <mxGeometry width="50" height="50" relative="1" as="geometry">
        <Array as="points">
          <mxPoint x="1992" y="1188" />
          <mxPoint x="1992" y="-240" />
          <mxPoint x="1955" y="-240" />
          <mxPoint x="1955" y="-240" />
        </Array>
      </mxGeometry>
    </mxCell>
    <mxCell id="edge38" edge="1" value="" parent="1" source="node4" target="node14" style="html=1;rounded=1;edgeStyle=orthogonalEdgeStyle;dashed=1;startArrow=none;endArrow=block;endSize=12;strokeColor=#008200;exitX=0.000;exitY=0.500;exitDx=0;exitDy=0;entryX=0.000;entryY=0.500;entryDx=0;entryDy=0;">
      <mxGeometry width="50" height="50" relative="1" as="geometry">
        <Array as="points">
          <mxPoint x="2011" y="1173" />
          <mxPoint x="2011" y="-228" />
        </Array>
      </mxGeometry>
    </mxCell>
    <mxCell id="edge41" edge="1" value="" parent="1" source="node0" target="node10" style="html=1;rounded=1;edgeStyle=orthogonalEdgeStyle;dashed=0;startArrow=none;endArrow=block;endSize=12;strokeColor=#000082;exitX=1.000;exitY=0.312;exitDx=0;exitDy=0;entryX=1.000;entryY=0.564;entryDx=0;entryDy=0;">
      <mxGeometry width="50" height="50" relative="1" as="geometry">
        <Array as="points">
          <mxPoint x="2478" y="1312" />
          <mxPoint x="2478" y="1440" />
          <mxPoint x="1954" y="1440" />
          <mxPoint x="1954" y="1373" />
        </Array>
      </mxGeometry>
    </mxCell>
    <mxCell id="edge18" edge="1" value="" parent="1" source="node0" target="node2" style="html=1;rounded=1;edgeStyle=orthogonalEdgeStyle;dashed=1;startArrow=none;endArrow=block;endSize=12;strokeColor=#008200;exitX=0.000;exitY=0.608;exitDx=0;exitDy=0;entryX=1.000;entryY=0.500;entryDx=0;entryDy=0;">
      <mxGeometry width="50" height="50" relative="1" as="geometry">
        <Array as="points">
          <mxPoint x="1992" y="1353" />
          <mxPoint x="1992" y="-240" />
          <mxPoint x="1955" y="-240" />
          <mxPoint x="1955" y="-240" />
        </Array>
      </mxGeometry>
    </mxCell>
    <mxCell id="edge1" edge="1" value="" parent="1" source="node0" target="node14" style="html=1;rounded=1;edgeStyle=orthogonalEdgeStyle;dashed=1;startArrow=none;endArrow=block;endSize=12;strokeColor=#008200;exitX=0.000;exitY=0.500;exitDx=0;exitDy=0;entryX=0.000;entryY=0.500;entryDx=0;entryDy=0;">
      <mxGeometry width="50" height="50" relative="1" as="geometry">
        <Array as="points">
          <mxPoint x="2011" y="1338" />
          <mxPoint x="2011" y="-228" />
        </Array>
      </mxGeometry>
    </mxCell>
  </root>
</mxGraphModel>